<mxfile host="Electron" modified="2024-04-13T11:04:22.139Z" agent="Mozilla/5.0 (Macintosh; Intel Mac OS X 10_15_7) AppleWebKit/537.36 (KHTML, like Gecko) draw.io/24.1.0 Chrome/120.0.6099.109 Electron/28.1.0 Safari/537.36" etag="itOubkM_xGWr8kaR0YyT" version="24.1.0" type="device">
  <diagram name="페이지-1" id="FIuuHH6KV1lwml8EkJVN">
    <mxGraphModel dx="1114" dy="894" grid="1" gridSize="10" guides="1" tooltips="1" connect="1" arrows="1" fold="1" page="1" pageScale="1" pageWidth="827" pageHeight="1169" math="0" shadow="0">
      <root>
        <mxCell id="0" />
        <mxCell id="1" parent="0" />
        <mxCell id="68T7g25ZfhxS_GkyeCCD-1" value="f(50)" style="ellipse;whiteSpace=wrap;html=1;aspect=fixed;" vertex="1" parent="1">
          <mxGeometry x="389" y="70" width="50" height="50" as="geometry" />
        </mxCell>
        <mxCell id="68T7g25ZfhxS_GkyeCCD-2" value="f(48)" style="ellipse;whiteSpace=wrap;html=1;aspect=fixed;fillColor=#f5f5f5;fontColor=#333333;strokeColor=#666666;" vertex="1" parent="1">
          <mxGeometry x="540" y="180" width="50" height="50" as="geometry" />
        </mxCell>
        <mxCell id="68T7g25ZfhxS_GkyeCCD-3" value="f(49)" style="ellipse;whiteSpace=wrap;html=1;aspect=fixed;" vertex="1" parent="1">
          <mxGeometry x="240" y="180" width="50" height="50" as="geometry" />
        </mxCell>
        <mxCell id="68T7g25ZfhxS_GkyeCCD-4" value="f(45)" style="ellipse;whiteSpace=wrap;html=1;aspect=fixed;" vertex="1" parent="1">
          <mxGeometry x="360" y="350" width="50" height="50" as="geometry" />
        </mxCell>
        <mxCell id="68T7g25ZfhxS_GkyeCCD-5" value="f(46)" style="ellipse;whiteSpace=wrap;html=1;aspect=fixed;" vertex="1" parent="1">
          <mxGeometry x="280" y="350" width="50" height="50" as="geometry" />
        </mxCell>
        <mxCell id="68T7g25ZfhxS_GkyeCCD-6" value="f(46)" style="ellipse;whiteSpace=wrap;html=1;aspect=fixed;" vertex="1" parent="1">
          <mxGeometry x="200" y="350" width="50" height="50" as="geometry" />
        </mxCell>
        <mxCell id="68T7g25ZfhxS_GkyeCCD-7" value="f(47)" style="ellipse;whiteSpace=wrap;html=1;aspect=fixed;fillColor=#dae8fc;strokeColor=#6c8ebf;" vertex="1" parent="1">
          <mxGeometry x="120" y="350" width="50" height="50" as="geometry" />
        </mxCell>
        <mxCell id="68T7g25ZfhxS_GkyeCCD-8" value="f(47)" style="ellipse;whiteSpace=wrap;html=1;aspect=fixed;fillColor=#dae8fc;strokeColor=#6c8ebf;" vertex="1" parent="1">
          <mxGeometry x="320" y="270" width="50" height="50" as="geometry" />
        </mxCell>
        <mxCell id="68T7g25ZfhxS_GkyeCCD-9" value="f(48)" style="ellipse;whiteSpace=wrap;html=1;aspect=fixed;fillColor=#f5f5f5;fontColor=#333333;strokeColor=#666666;" vertex="1" parent="1">
          <mxGeometry x="161" y="270" width="50" height="50" as="geometry" />
        </mxCell>
        <mxCell id="68T7g25ZfhxS_GkyeCCD-10" value="f(46)" style="ellipse;whiteSpace=wrap;html=1;aspect=fixed;" vertex="1" parent="1">
          <mxGeometry x="610" y="270" width="50" height="50" as="geometry" />
        </mxCell>
        <mxCell id="68T7g25ZfhxS_GkyeCCD-11" value="f(47)" style="ellipse;whiteSpace=wrap;html=1;aspect=fixed;fillColor=#dae8fc;strokeColor=#6c8ebf;" vertex="1" parent="1">
          <mxGeometry x="480" y="270" width="50" height="50" as="geometry" />
        </mxCell>
        <mxCell id="68T7g25ZfhxS_GkyeCCD-12" value="" style="endArrow=block;html=1;rounded=0;endFill=1;exitX=1;exitY=0.5;exitDx=0;exitDy=0;entryX=0;entryY=0;entryDx=0;entryDy=0;" edge="1" parent="1" source="68T7g25ZfhxS_GkyeCCD-3" target="68T7g25ZfhxS_GkyeCCD-8">
          <mxGeometry width="50" height="50" relative="1" as="geometry">
            <mxPoint x="390" y="480" as="sourcePoint" />
            <mxPoint x="440" y="430" as="targetPoint" />
          </mxGeometry>
        </mxCell>
        <mxCell id="68T7g25ZfhxS_GkyeCCD-13" value="" style="endArrow=block;html=1;rounded=0;endFill=1;exitX=0;exitY=1;exitDx=0;exitDy=0;entryX=0.5;entryY=0;entryDx=0;entryDy=0;" edge="1" parent="1" source="68T7g25ZfhxS_GkyeCCD-8" target="68T7g25ZfhxS_GkyeCCD-5">
          <mxGeometry width="50" height="50" relative="1" as="geometry">
            <mxPoint x="400" y="490" as="sourcePoint" />
            <mxPoint x="450" y="440" as="targetPoint" />
          </mxGeometry>
        </mxCell>
        <mxCell id="68T7g25ZfhxS_GkyeCCD-14" value="" style="endArrow=block;html=1;rounded=0;endFill=1;exitX=0.06;exitY=0.74;exitDx=0;exitDy=0;exitPerimeter=0;entryX=0.5;entryY=0;entryDx=0;entryDy=0;" edge="1" parent="1" source="68T7g25ZfhxS_GkyeCCD-2" target="68T7g25ZfhxS_GkyeCCD-11">
          <mxGeometry width="50" height="50" relative="1" as="geometry">
            <mxPoint x="410" y="500" as="sourcePoint" />
            <mxPoint x="460" y="450" as="targetPoint" />
          </mxGeometry>
        </mxCell>
        <mxCell id="68T7g25ZfhxS_GkyeCCD-15" value="" style="endArrow=block;html=1;rounded=0;endFill=1;exitX=0;exitY=0.5;exitDx=0;exitDy=0;entryX=0.5;entryY=0;entryDx=0;entryDy=0;" edge="1" parent="1" source="68T7g25ZfhxS_GkyeCCD-3">
          <mxGeometry width="50" height="50" relative="1" as="geometry">
            <mxPoint x="242" y="215" as="sourcePoint" />
            <mxPoint x="191" y="270" as="targetPoint" />
          </mxGeometry>
        </mxCell>
        <mxCell id="68T7g25ZfhxS_GkyeCCD-16" value="" style="endArrow=block;html=1;rounded=0;endFill=1;exitX=1;exitY=0.5;exitDx=0;exitDy=0;entryX=0.38;entryY=-0.02;entryDx=0;entryDy=0;entryPerimeter=0;" edge="1" parent="1" source="68T7g25ZfhxS_GkyeCCD-1" target="68T7g25ZfhxS_GkyeCCD-2">
          <mxGeometry width="50" height="50" relative="1" as="geometry">
            <mxPoint x="430" y="520" as="sourcePoint" />
            <mxPoint x="480" y="470" as="targetPoint" />
          </mxGeometry>
        </mxCell>
        <mxCell id="68T7g25ZfhxS_GkyeCCD-17" value="" style="endArrow=block;html=1;rounded=0;endFill=1;exitX=0;exitY=0.5;exitDx=0;exitDy=0;entryX=0.5;entryY=0;entryDx=0;entryDy=0;" edge="1" parent="1" source="68T7g25ZfhxS_GkyeCCD-1" target="68T7g25ZfhxS_GkyeCCD-3">
          <mxGeometry width="50" height="50" relative="1" as="geometry">
            <mxPoint x="440" y="530" as="sourcePoint" />
            <mxPoint x="490" y="480" as="targetPoint" />
          </mxGeometry>
        </mxCell>
        <mxCell id="68T7g25ZfhxS_GkyeCCD-18" value="" style="endArrow=block;html=1;rounded=0;endFill=1;exitX=1;exitY=1;exitDx=0;exitDy=0;entryX=0.36;entryY=0.06;entryDx=0;entryDy=0;entryPerimeter=0;" edge="1" parent="1">
          <mxGeometry width="50" height="50" relative="1" as="geometry">
            <mxPoint x="362.6776695296637" y="311.6776695296637" as="sourcePoint" />
            <mxPoint x="378" y="352" as="targetPoint" />
          </mxGeometry>
        </mxCell>
        <mxCell id="68T7g25ZfhxS_GkyeCCD-20" value="" style="endArrow=block;html=1;rounded=0;endFill=1;exitX=1;exitY=1;exitDx=0;exitDy=0;entryX=0.36;entryY=0.06;entryDx=0;entryDy=0;entryPerimeter=0;" edge="1" parent="1">
          <mxGeometry width="50" height="50" relative="1" as="geometry">
            <mxPoint x="203.67766952966372" y="311.6776695296637" as="sourcePoint" />
            <mxPoint x="218" y="352" as="targetPoint" />
          </mxGeometry>
        </mxCell>
        <mxCell id="68T7g25ZfhxS_GkyeCCD-21" value="" style="endArrow=block;html=1;rounded=0;endFill=1;exitX=0;exitY=1;exitDx=0;exitDy=0;entryX=0.5;entryY=0;entryDx=0;entryDy=0;" edge="1" parent="1" source="68T7g25ZfhxS_GkyeCCD-9" target="68T7g25ZfhxS_GkyeCCD-7">
          <mxGeometry width="50" height="50" relative="1" as="geometry">
            <mxPoint x="440" y="530" as="sourcePoint" />
            <mxPoint x="490" y="480" as="targetPoint" />
          </mxGeometry>
        </mxCell>
        <mxCell id="68T7g25ZfhxS_GkyeCCD-23" value="" style="endArrow=block;html=1;rounded=0;endFill=1;exitX=1.02;exitY=0.68;exitDx=0;exitDy=0;exitPerimeter=0;" edge="1" parent="1" source="68T7g25ZfhxS_GkyeCCD-2" target="68T7g25ZfhxS_GkyeCCD-10">
          <mxGeometry width="50" height="50" relative="1" as="geometry">
            <mxPoint x="440" y="530" as="sourcePoint" />
            <mxPoint x="490" y="480" as="targetPoint" />
          </mxGeometry>
        </mxCell>
      </root>
    </mxGraphModel>
  </diagram>
</mxfile>
